#!OML:ASF F:\VICON\USERDATA\INSTALL\rory3\rory3.ASF
:FULLY-SPECIFIED
:DEGREES
393
root 0.587887 16.3796 -13.7375 26.2475 -5.31058 -2.55989
lowerback -19.8646 1.13959 -3.39299
upperback -10.4369 2.02098 1.15137
thorax -0.343362 1.18687 3.52454
lowerneck -11.014 -1.53283 0.0474733
upperneck 37.7677 -2.78623 1.08848
head 14.9885 -1.04166 0.0118783
rclavicle 1.46852e-014 1.8487e-014
rhumerus -54.9806 7.68927 -88.1012
rradius 17.386
rwrist -5.66846
rhand 24.694 5.42334
rfingers 7.12502
rthumb 48.8801 -16.3682
lclavicle 1.46852e-014 1.8487e-014
lhumerus -49.7937 4.47538 78.826
lradius 34.2797
lwrist -9.67837
lhand 17.4715 15.6677
lfingers 7.12502
lthumb 42.1727 40.1996
rfemur -18.3738 -3.89578 31.4196
rtibia 43.2767
rfoot 24.3475 -23.0133
rtoes 14.2955
lfemur -47.5445 5.06436 -33.7294
ltibia 40.1005
lfoot -47.0553 27.5098
ltoes 20.2031
394
root 0.587437 16.3829 -13.7436 26.3399 -5.38219 -2.67739
lowerback -20.0575 1.13764 -3.34388
upperback -10.3791 2.01412 1.20518
thorax -0.182894 1.17828 3.56073
lowerneck -11.0752 -1.49126 0.0409342
upperneck 37.8384 -2.74073 1.12999
head 15.0382 -1.01662 0.0367364
rclavicle -2.5022e-014 8.39865e-015
rhumerus -54.896 7.51868 -87.9417
rradius 17.3712
rwrist -5.48454
rhand 24.4408 5.61167
rfingers 7.12502
rthumb 48.6473 -16.2934
lclavicle -2.5022e-014 8.39865e-015
lhumerus -49.3 4.38672 78.902
lradius 33.5178
lwrist -8.91446
lhand 16.937 15.4191
lfingers 7.12502
lthumb 41.6717 40.1182
rfemur -18.4301 -3.7535 31.5071
rtibia 43.2435
rfoot 23.8439 -23.5705
rtoes 16.5488
lfemur -47.6445 5.05828 -33.5973
ltibia 40.0766
lfoot -47.0683 27.3068
ltoes 21.0492
395
root 0.585161 16.3849 -13.7519 26.42 -5.47642 -2.70726
lowerback -20.1308 1.1201 -3.39802
upperback -10.3906 2.00071 1.24938
thorax -0.162128 1.17452 3.63842
lowerneck -11.1145 -1.49277 0.010793
upperneck 37.9311 -2.71486 1.06634
head 15.0917 -1.01784 0.0187572
rclavicle -1.08213e-014 3.47873e-016
rhumerus -54.8258 7.35976 -87.7365
rradius 17.119
rwrist -5.14164
rhand 24.1068 6.17944
rfingers 7.12502
rthumb 48.3399 -15.8732
lclavicle -1.08213e-014 3.47873e-016
lhumerus -49.1039 4.2529 78.9893
lradius 33.0818
lwrist -8.26364
lhand 16.7166 15.4129
lfingers 7.12502
lthumb 41.465 40.1796
rfemur -18.5153 -3.58934 31.5251
rtibia 43.2143
rfoot 24.0346 -23.6217
rtoes 16.9472
lfemur -47.7326 5.14303 -33.6091
ltibia 40.0387
lfoot -47.2224 27.0273
ltoes 21.6043
396
root 0.582537 16.3909 -13.7598 26.484 -5.63338 -2.66753
lowerback -20.2181 1.09885 -3.52083
upperback -10.4021 1.99549 1.25044
thorax -0.136279 1.17609 3.71111
lowerneck -11.0778 -1.50002 -0.0124501
upperneck 38.017 -2.72044 1.05802
head 15.1256 -1.02488 0.01857
rclavicle -2.47549e-015 1.93815e-015
rhumerus -54.6956 7.01741 -87.3406
rradius 16.5732
rwrist -4.37618
rhand 23.6502 7.30436
rfingers 7.12502
rthumb 47.9191 -14.9461
lclavicle -2.47549e-015 1.93815e-015
lhumerus -49.1047 4.0665 79.0334
lradius 32.9976
lwrist -7.92666
lhand 16.979 15.5644
lfingers 7.12502
lthumb 41.7111 40.2505
rfemur -18.6505 -3.48171 31.4429
rtibia 43.2207
rfoot 24.4619 -23.4773
rtoes 16.4182
lfemur -47.8137 5.04886 -33.6081
ltibia 39.9593
lfoot -47.3629 27.2489
ltoes 21.571
397
root 0.581252 16.3947 -13.77 26.558 -5.75766 -2.7345
lowerback -20.2238 1.08499 -3.51248
upperback -10.4234 1.97395 1.28172
thorax -0.155758 1.16619 3.73546
lowerneck -11.1041 -1.45593 0.0403474
upperneck 38.0426 -2.66673 1.04551
head 15.1428 -0.996497 0.0117973
rclavicle 8.08184e-015 6.11263e-015
rhumerus -54.5544 6.74359 -87.0513
rradius 16.0363
rwrist -3.83874
rhand 23.2132 7.93686
rfingers 7.12502
rthumb 47.5158 -14.4987
lclavicle 8.08184e-015 6.11263e-015
lhumerus -49.0641 4.06261 78.9622
lradius 32.9537
lwrist -7.63598
lhand 17.1293 15.2702
lfingers 7.12502
lthumb 41.8521 39.9096
rfemur -18.7725 -3.4757 31.4582
rtibia 43.2412
rfoot 24.5089 -23.3153
rtoes 16.2783
lfemur -47.9268 4.8961 -33.4486
ltibia 39.8619
lfoot -47.3708 27.5839
ltoes 21.6274
398
root 0.577173 16.3978 -13.7791 26.5798 -5.96547 -2.79124
lowerback -20.1372 1.08662 -3.58464
upperback -10.4424 1.98369 1.31635
thorax -0.225902 1.1765 3.81187
lowerneck -11.3368 -1.41868 0.0843085
upperneck 38.1423 -2.63341 1.05425
head 15.2466 -0.972785 0.010194
rclavicle 1.09083e-014 7.55382e-015
rhumerus -54.4973 6.52689 -86.8451
rradius 15.8137
rwrist -3.60897
rhand 23.2103 7.97579
rfingers 7.12502
rthumb 47.5131 -14.461
lclavicle 1.09083e-014 7.55382e-015
lhumerus -48.9625 4.05716 78.8706
lradius 32.7395
lwrist -7.16407
lhand 17.3371 14.8662
lfingers 7.12502
lthumb 42.0468 39.4406
rfemur -18.8237 -3.26274 31.4465
rtibia 43.2722
rfoot 24.4512 -23.2914
rtoes 16.4174
lfemur -47.9547 4.85705 -33.3457
ltibia 39.7556
lfoot -47.4737 27.7712
ltoes 21.7559
399
root 0.573741 16.4028 -13.7871 26.6332 -6.1933 -2.73571
lowerback -20.1112 1.09078 -3.72467
upperback -10.5071 2.01126 1.27418
thorax -0.317063 1.19769 3.84922
lowerneck -11.2941 -1.39074 0.155649
upperneck 38.0961 -2.61426 1.06289
head 15.2125 -0.954666 0.00445879
rclavicle 2.35156e-014 2.45996e-014
rhumerus -54.6419 6.30058 -86.7162
rradius 15.9445
rwrist -3.58655
rhand 23.5898 7.78959
rfingers 7.12502
rthumb 47.8634 -14.4867
lclavicle 2.35156e-014 2.45996e-014
lhumerus -48.5926 3.90963 78.7929
lradius 31.6471
lwrist -6.87682
lhand 17.1592 13.9612
lfingers 7.12502
lthumb 41.8801 38.5913
rfemur -18.8759 -2.99322 31.3061
rtibia 43.2519
rfoot 24.3766 -23.3489
rtoes 17.046
lfemur -48.0227 4.95814 -33.463
ltibia 39.693
lfoot -47.4368 28.1094
ltoes 20.8107
400
root 0.572918 16.4075 -13.7932 26.711 -6.33415 -2.66184
lowerback -20.1723 1.07359 -3.79405
upperback -10.5594 2.00207 1.21506
thorax -0.3433 1.19523 3.82474
lowerneck -11.1362 -1.37247 0.18212
upperneck 38.0695 -2.60715 1.09879
head 15.1623 -0.945337 0.0173546
rclavicle -1.28651e-014 -2.56929e-014
rhumerus -54.7994 6.3137 -86.8907
rradius 16.2402
rwrist -3.80573
rhand 23.6936 7.3191
rfingers 7.12502
rthumb 47.9591 -14.9128
lclavicle -1.28651e-014 -2.56929e-014
lhumerus -48.9727 3.26579 79.0448
lradius 32.3327
lwrist -6.16189
lhand 17.4593 14.1463
lfingers 7.12502
lthumb 42.1613 38.6821
rfemur -18.9316 -2.9106 31.1601
rtibia 43.1884
rfoot 24.2652 -23.2911
rtoes 17.4795
lfemur -48.1076 5.08522 -33.6313
ltibia 39.6583
lfoot -47.3299 28.1981
ltoes 20.2972
401
root 0.576091 16.4104 -13.7911 26.6036 -6.37095 -2.77439
lowerback -20.154 1.09049 -3.62468
upperback -10.5199 1.99337 1.24737
thorax -0.301798 1.18266 3.76166
lowerneck -11.0716 -1.32786 0.180075
upperneck 38.0807 -2.54573 1.11455
head 15.1525 -0.918251 0.0345148
rclavicle 1.27906e-014 4.42296e-015
rhumerus -54.8593 6.36706 -86.979
rradius 16.3904
rwrist -3.92881
rhand 23.5572 6.95025
rfingers 7.12502
rthumb 47.8333 -15.34
lclavicle 1.27906e-014 4.42296e-015
lhumerus -49.2162 2.79769 79.2888
lradius 32.8379
lwrist -5.677
lhand 17.958 14.3597
lfingers 7.12502
lthumb 42.6283 38.7357
rfemur -18.6739 -2.95792 31.1952
rtibia 43.0493
rfoot 24.0282 -23.2925
rtoes 17.7042
lfemur -47.9478 5.09922 -33.487
ltibia 39.665
lfoot -47.5767 28.0077
ltoes 20.6881
402
root 0.580523 16.4133 -13.785 26.3993 -6.48311 -2.89235
lowerback -20.1041 1.11286 -3.45035
upperback -10.4502 1.98933 1.30135
thorax -0.244587 1.17186 3.71929
lowerneck -10.9831 -1.28036 0.210748
upperneck 38.0702 -2.45692 1.04583
head 15.1237 -0.886983 0.0146384
rclavicle -7.85821e-016 5.46658e-015
rhumerus -54.8669 6.46871 -87.0252
rradius 16.3354
rwrist -3.79361
rhand 23.4886 6.96019
rfingers 7.12502
rthumb 47.77 -15.3592
lclavicle -7.85821e-016 5.46658e-015
lhumerus -49.3628 2.44265 79.5411
lradius 33.0077
lwrist -5.16858
lhand 17.9929 14.3185
lfingers 7.12502
lthumb 42.6609 38.6832
rfemur -18.2391 -3.10205 31.1902
rtibia 42.759
rfoot 24.3622 -22.5938
rtoes 16.1266
lfemur -47.7057 5.15842 -33.3698
ltibia 39.7618
lfoot -47.9904 27.8373
ltoes 21.2264
403
root 0.582611 16.416 -13.786 26.2406 -6.57121 -2.97739
lowerback -20.022 1.15939 -3.33801
upperback -10.3959 2.02809 1.32217
thorax -0.225678 1.18576 3.68324
lowerneck -10.9101 -1.30437 0.13358
upperneck 38.0513 -2.48689 1.0848
head 15.0993 -0.906743 0.0406956
rclavicle 1.86299e-014 -4.72114e-015
rhumerus -54.8153 6.37573 -86.9185
rradius 16.3219
rwrist -3.49026
rhand 23.6486 6.7822
rfingers 7.12502
rthumb 47.9176 -15.469
lclavicle 1.86299e-014 -4.72114e-015
lhumerus -49.2454 1.90353 79.9424
lradius 32.714
lwrist -4.58192
lhand 17.9598 14.4548
lfingers 7.12502
lthumb 42.63 38.8302
rfemur -17.9631 -3.17693 31.1928
rtibia 42.6043
rfoot 24.6061 -22.1771
rtoes 15.3109
lfemur -47.5378 5.29256 -33.3241
ltibia 39.8016
lfoot -48.0232 27.7797
ltoes 21.5822
404
root 0.603992 16.4029 -13.7287 24.8289 -7.89025 -3.59871
lowerback -19.7021 1.80721 -2.58677
upperback -9.70731 2.73876 1.33485
thorax 0.340094 1.48998 3.40786
lowerneck -10.9371 -1.31892 0.08697
upperneck 38.0591 -2.51711 1.13493
head 15.1115 -0.919696 0.0650066
rclavicle -2.23384e-014 -1.59028e-014
rhumerus -54.7296 6.49488 -87.0456
rradius 16.3766
rwrist -3.59095
rhand 23.8566 6.23091
rfingers 7.12502
rthumb 48.1093 -15.9307
lclavicle -2.23384e-014 -1.59028e-014
lhumerus -49.102 1.23273 80.4378
lradius 32.5642
lwrist -3.91455
lhand 18.0032 14.7013
lfingers 7.12502
lthumb 42.6706 39.0626
rfemur -15.8939 -2.82265 30.8724
rtibia 42.4038
rfoot 24.8955 -21.219
rtoes 14.6876
lfemur -45.706 5.25646 -32.3999
ltibia 39.8562
lfoot -50.4975 27.4939
ltoes 23.7423
405
root 0.584085 16.4187 -13.7918 25.9545 -7.01201 -3.22781
lowerback -20.0646 1.3006 -3.17014
upperback -10.1234 2.1837 1.37583
thorax 0.0842156 1.24668 3.68205
lowerneck -11.061 -1.29 0.0747734
upperneck 38.0741 -2.48453 1.16611
head 15.1488 -0.902746 0.0841753
rclavicle -2.24223e-014 -1.23743e-014
rhumerus -54.6385 6.76263 -87.3167
rradius 16.3113
rwrist -3.87408
rhand 23.889 5.93154
rfingers 7.12502
rthumb 48.1392 -16.2161
lclavicle -2.24223e-014 -1.23743e-014
lhumerus -48.9151 0.569294 80.9235
lradius 32.5065
lwrist -3.24949
lhand 17.9304 14.7671
lfingers 7.12502
lthumb 42.6025 39.152
rfemur -17.5725 -2.99422 31.1957
rtibia 42.523
rfoot 24.6986 -21.8688
rtoes 15.1279
lfemur -47.2038 5.22274 -32.9231
ltibia 39.7632
lfoot -48.7842 27.5775
ltoes 22.7816
406
root 0.579563 16.4218 -13.805 25.8919 -7.25217 -3.17889
lowerback -19.2917 1.42501 -3.23005
upperback -10.5862 2.33598 1.19732
thorax -0.816544 1.34715 3.51318
lowerneck -10.811 -1.3084 0.18224
upperneck 38.42 -2.58857 1.26613
head 15.2633 -0.916693 0.0931296
rclavicle -3.26877e-014 -1.31198e-014
rhumerus -55.4346 6.58414 -87.6571
rradius 16.1236
rwrist -3.67664
rhand 23.5603 7.1657
rfingers 7.12502
rthumb 47.8361 -15.1232
lclavicle -3.26877e-014 -1.31198e-014
lhumerus -49.5345 -0.499303 81.2642
lradius 32.5693
lwrist -2.74019
lhand 18.0138 14.9554
lfingers 7.12502
lthumb 42.6805 39.3133
rfemur -17.5959 -2.78438 31.0797
rtibia 42.5526
rfoot 24.8264 -21.6227
rtoes 14.6992
lfemur -47.1489 5.03746 -32.8699
ltibia 39.7138
lfoot -49.1535 27.7512
ltoes 22.8773
